<svg width="207" height="112" viewBox="0 0 207 112" fill="none" xmlns="http://www.w3.org/2000/svg">
<path d="M21.36 29.44V102.52H51.48L50.28 112H10.2V29.44H21.36Z" />
<path d="M58.8679 83.6609C58.8679 85.3675 59.108 86.6475 59.588 87.5009C60.068 88.3009 60.8146 88.9142 61.828 89.3409L60.308 94.2209C58.228 93.9009 56.6013 93.2609 55.428 92.3009C54.2546 91.3409 53.428 89.8742 52.9479 87.9009C50.2279 92.1675 46.4146 94.3009 41.5079 94.3009C37.7746 94.3009 34.8146 93.1542 32.6279 90.8609C30.4413 88.5142 29.3479 85.3942 29.3479 81.5009C29.3479 77.0209 30.8146 73.6075 33.7479 71.2609C36.6813 68.9142 40.8679 67.7409 46.3079 67.7409H51.748V64.1409C51.748 61.2075 51.1346 59.1009 49.908 57.8209C48.7346 56.4875 46.7879 55.8209 44.0679 55.8209C41.1346 55.8209 37.7213 56.5675 33.8279 58.0609L32.0679 53.0209C36.7613 51.1009 41.1346 50.1409 45.1879 50.1409C54.3079 50.1409 58.8679 54.7009 58.8679 63.8209V83.6609ZM43.188 88.8609C46.9213 88.8609 49.7746 86.6742 51.748 82.3009V72.3809H47.108C40.1746 72.3809 36.7079 75.2875 36.7079 81.1009C36.7079 83.6075 37.2679 85.5275 38.388 86.8609C39.508 88.1942 41.108 88.8609 43.188 88.8609ZM90.0067 50.1409C94.5934 50.1409 98.0334 52.0342 100.327 55.8209C102.673 59.6075 103.847 65.0209 103.847 72.0609C103.847 78.8875 102.54 84.3009 99.9267 88.3009C97.3667 92.3009 93.7667 94.3009 89.1267 94.3009C84.9667 94.3009 81.6067 92.6209 79.0467 89.2609V109.261L71.8467 110.141V51.1809H78.1667L78.5667 56.8609C81.4467 52.3809 85.26 50.1409 90.0067 50.1409ZM87.4467 88.5409C93.3667 88.5409 96.3267 83.0742 96.3267 72.1409C96.3267 66.4342 95.6334 62.3009 94.2467 59.7409C92.9134 57.1275 90.86 55.8209 88.0867 55.8209C86.22 55.8209 84.5667 56.3809 83.1267 57.5009C81.6867 58.6209 80.3267 60.1409 79.0467 62.0609V83.3409C81.2334 86.8075 84.0334 88.5409 87.4467 88.5409ZM121.625 51.1809V93.2609H114.425V51.1809H121.625ZM118.025 31.3409C119.411 31.3409 120.531 31.7942 121.385 32.7009C122.291 33.6075 122.745 34.7275 122.745 36.0609C122.745 37.3942 122.318 38.5142 121.465 39.4209C120.611 40.2742 119.465 40.7009 118.025 40.7009C116.638 40.7009 115.491 40.2742 114.585 39.4209C113.731 38.5142 113.305 37.3942 113.305 36.0609C113.305 34.7275 113.731 33.6075 114.585 32.7009C115.491 31.7942 116.638 31.3409 118.025 31.3409ZM157.541 51.1809V56.5409L137.621 87.3409H157.621L156.901 93.2609H129.701V87.9009L149.621 57.1009H131.381V51.1809H157.541ZM195.117 70.9409C195.117 72.0609 195.063 73.3142 194.957 74.7009H170.477C170.69 79.6075 171.677 83.1542 173.437 85.3409C175.197 87.4742 177.597 88.5409 180.637 88.5409C182.557 88.5409 184.263 88.2475 185.757 87.6609C187.303 87.0742 188.903 86.1142 190.557 84.7809L193.757 89.0209C189.81 92.5409 185.33 94.3009 180.317 94.3009C174.823 94.3009 170.557 92.4075 167.517 88.6209C164.53 84.7809 163.037 79.4209 163.037 72.5409C163.037 65.6609 164.477 60.2209 167.357 56.2209C170.237 52.1675 174.237 50.1409 179.357 50.1409C184.423 50.1409 188.317 51.9542 191.037 55.5809C193.757 59.1542 195.117 64.2742 195.117 70.9409ZM188.157 68.7809C188.157 59.9809 185.25 55.5809 179.437 55.5809C176.77 55.5809 174.663 56.7009 173.117 58.9409C171.57 61.1275 170.69 64.7009 170.477 69.6609H188.157V68.7809Z"/>
</svg>
