<svg width="217" height="117" viewBox="0 0 217 117" fill="none" xmlns="http://www.w3.org/2000/svg">
<g id="Logo">
<path id="Lapize" d="M17.8 25.2V86.1H42.9L41.9 94H8.5V25.2H17.8ZM77.0559 84.4C77.0559 86.1067 77.2959 87.3867 77.7759 88.24C78.2559 89.04 79.0026 89.6533 80.0159 90.08L78.4959 94.96C76.4159 94.64 74.7893 94 73.6159 93.04C72.4426 92.08 71.6159 90.6133 71.1359 88.64C68.4159 92.9067 64.6026 95.04 59.6959 95.04C55.9626 95.04 53.0026 93.8933 50.8159 91.6C48.6293 89.2533 47.5359 86.1333 47.5359 82.24C47.5359 77.76 49.0026 74.3467 51.9359 72C54.8693 69.6533 59.0559 68.48 64.4959 68.48H69.9359V64.88C69.9359 61.9467 69.3226 59.84 68.0959 58.56C66.9226 57.2267 64.9759 56.56 62.2559 56.56C59.3226 56.56 55.9093 57.3067 52.0159 58.8L50.2559 53.76C54.9493 51.84 59.3226 50.88 63.3759 50.88C72.4959 50.88 77.0559 55.44 77.0559 64.56V84.4ZM61.3759 89.6C65.1093 89.6 67.9626 87.4133 69.9359 83.04V73.12H65.2959C58.3626 73.12 54.8959 76.0267 54.8959 81.84C54.8959 84.3467 55.4559 86.2667 56.5759 87.6C57.6959 88.9333 59.2959 89.6 61.3759 89.6ZM108.195 50.88C112.781 50.88 116.221 52.7733 118.515 56.56C120.861 60.3467 122.035 65.76 122.035 72.8C122.035 79.6267 120.728 85.04 118.115 89.04C115.555 93.04 111.955 95.04 107.315 95.04C103.155 95.04 99.7947 93.36 97.2347 90V110L90.0347 110.88V51.92H96.3547L96.7547 57.6C99.6347 53.12 103.448 50.88 108.195 50.88ZM105.635 89.28C111.555 89.28 114.515 83.8133 114.515 72.88C114.515 67.1733 113.821 63.04 112.435 60.48C111.101 57.8667 109.048 56.56 106.275 56.56C104.408 56.56 102.755 57.12 101.315 58.24C99.8747 59.36 98.5147 60.88 97.2347 62.8V84.08C99.4214 87.5467 102.221 89.28 105.635 89.28ZM139.813 51.92V94H132.613V51.92H139.813ZM136.213 32.08C137.599 32.08 138.719 32.5333 139.573 33.44C140.479 34.3467 140.933 35.4667 140.933 36.8C140.933 38.1333 140.506 39.2533 139.653 40.16C138.799 41.0133 137.653 41.44 136.213 41.44C134.826 41.44 133.679 41.0133 132.773 40.16C131.919 39.2533 131.493 38.1333 131.493 36.8C131.493 35.4667 131.919 34.3467 132.773 33.44C133.679 32.5333 134.826 32.08 136.213 32.08ZM175.729 51.92V57.28L155.809 88.08H175.809L175.089 94H147.889V88.64L167.809 57.84H149.569V51.92H175.729ZM213.305 71.68C213.305 72.8 213.251 74.0533 213.145 75.44H188.665C188.878 80.3467 189.865 83.8933 191.625 86.08C193.385 88.2133 195.785 89.28 198.825 89.28C200.745 89.28 202.451 88.9867 203.945 88.4C205.491 87.8133 207.091 86.8533 208.745 85.52L211.945 89.76C207.998 93.28 203.518 95.04 198.505 95.04C193.011 95.04 188.745 93.1467 185.705 89.36C182.718 85.52 181.225 80.16 181.225 73.28C181.225 66.4 182.665 60.96 185.545 56.96C188.425 52.9067 192.425 50.88 197.545 50.88C202.611 50.88 206.505 52.6933 209.225 56.32C211.945 59.8933 213.305 65.0133 213.305 71.68ZM206.345 69.52C206.345 60.72 203.438 56.32 197.625 56.32C194.958 56.32 192.851 57.44 191.305 59.68C189.758 61.8667 188.878 65.44 188.665 70.4H206.345V69.52Z"/>
</g>
</svg>
